<svg xmlns="http://www.w3.org/2000/svg" width="47" height="13" viewBox="0 0 47 13" fill="none">
<path d="M28.7526 0.724139C28.7526 0.476463 28.668 0.377393 28.4143 0.388401C28.1154 0.404912 27.8109 0.399408 27.512 0.388401C27.2808 0.382897 27.2018 0.470959 27.2075 0.69662C27.2187 1.49469 27.2131 2.29275 27.2131 3.09082C27.2131 3.88889 27.2187 4.68696 27.2075 5.47952C27.2075 5.69968 27.2808 5.77673 27.5007 5.76022C27.6699 5.74371 27.8391 5.75472 28.0082 5.75472C28.7526 5.75472 28.7526 5.75472 28.7526 5.0337C28.747 3.60269 28.747 2.16616 28.7526 0.724139ZM33.6419 0.393904C33.1625 0.404912 32.6832 0.388401 32.2039 0.399408C31.5554 0.410416 30.9463 0.537006 30.3993 0.92228C29.2658 1.72585 29.1925 3.61369 29.8072 4.63192C30.3091 5.46851 31.499 5.95836 32.5197 5.76022C32.5648 5.75472 32.6212 5.7327 32.6381 5.70518C32.8298 5.32541 33.0159 4.94014 33.2302 4.50533C32.8524 4.50533 32.5535 4.51083 32.2546 4.50533C31.5554 4.48882 31.1042 4.13657 30.9801 3.49261C30.9463 3.32199 30.9576 3.14586 30.9576 2.96974C30.9689 2.19919 31.4313 1.74787 32.2264 1.73686C32.7058 1.73136 33.1851 1.72585 33.6644 1.73686C33.8675 1.74236 33.952 1.66531 33.9464 1.46166C33.9351 1.20298 33.9295 0.9498 33.9464 0.691116C33.9746 0.448944 33.8618 0.388401 33.6419 0.393904ZM24.5344 8.55621C24.354 7.75264 23.604 7.21876 22.6171 7.20775C21.6584 7.19674 20.6997 7.21325 19.7411 7.20224C19.4647 7.19674 19.3801 7.29581 19.3858 7.54899C19.3971 8.33055 19.3914 9.1066 19.3914 9.88815C19.3914 10.6862 19.3971 11.4843 19.3914 12.2824C19.3914 12.5135 19.4647 12.6071 19.7185 12.5906C20.0343 12.5686 20.3557 12.5796 20.6772 12.5906C20.8746 12.5961 20.9422 12.5245 20.9366 12.3319C20.9253 11.9301 20.9422 11.5228 20.9309 11.121C20.9253 10.9284 20.9873 10.8623 21.1847 10.8679C21.6753 10.8789 22.1603 10.8789 22.6509 10.8679C23.9931 10.8348 24.8164 9.8166 24.5344 8.55621ZM22.5156 9.56893C22.2787 9.57994 22.0475 9.56893 21.8107 9.56893C21.5964 9.56893 21.3764 9.56342 21.1622 9.56893C21.0043 9.57443 20.914 9.5304 20.9253 9.35427C20.9366 9.13412 20.9309 8.91396 20.9253 8.69381C20.9197 8.55621 20.9761 8.49566 21.1227 8.49566C21.5907 8.50117 22.0644 8.49016 22.5325 8.50117C22.8539 8.51218 23.04 8.72683 23.04 9.04055C23.04 9.36528 22.8539 9.55792 22.5156 9.56893ZM16.8763 9.83862C17.6545 8.98001 18.4215 8.13241 19.2166 7.25178C19.1095 7.22426 19.0643 7.20775 19.0249 7.20775C18.5061 7.20224 17.9929 7.19674 17.4741 7.21325C17.3726 7.21876 17.2541 7.30132 17.1808 7.38387C16.7635 7.8407 16.3575 8.30853 15.9233 8.79288C15.8556 8.71582 15.7992 8.65528 15.7428 8.59474C15.3819 8.18745 15.021 7.77465 14.6544 7.36736C14.598 7.30132 14.5078 7.21876 14.4345 7.21876C13.8424 7.21325 13.2559 7.22426 12.6638 7.23527C12.6525 7.23527 12.6468 7.26279 12.6243 7.30682C13.3912 8.15442 14.1694 9.00753 14.9589 9.87164C14.1525 10.7578 13.3687 11.6274 12.5792 12.497C12.5904 12.5245 12.5961 12.552 12.6074 12.5796C13.0359 12.5796 13.4645 12.552 13.8875 12.5906C14.2991 12.6236 14.5698 12.486 14.8123 12.1668C15.145 11.7375 15.5285 11.3467 15.9007 10.9284C16.2165 11.2861 16.5436 11.5999 16.7974 11.9576C17.147 12.4475 17.5643 12.6786 18.1903 12.5906C18.5342 12.541 18.8895 12.5796 19.2392 12.5796C19.2504 12.552 19.2617 12.53 19.273 12.5025C18.4779 11.6219 17.6827 10.7413 16.8763 9.83862ZM41.2154 10.4606C41.1139 9.82211 40.6741 9.45335 40.0368 9.31575C39.8169 9.27172 39.5913 9.25521 39.3658 9.2497C38.9428 9.23869 38.5199 9.2442 38.0969 9.2442C37.8544 9.2442 37.7022 9.12861 37.6852 8.88644C37.6683 8.67179 37.8431 8.52318 38.1082 8.50667C38.1815 8.50117 38.2605 8.50667 38.3338 8.50667C38.9936 8.50667 39.6477 8.50667 40.3075 8.50117C40.4034 8.50117 40.5556 8.48466 40.5838 8.42411C40.7869 8.04985 40.9617 7.65907 41.159 7.24628C41.0406 7.22976 40.9786 7.20775 40.9166 7.20775C39.9579 7.20775 38.9992 7.19674 38.0405 7.21325C37.7586 7.21876 37.4597 7.29031 37.1946 7.38387C36.4728 7.64806 36.1232 8.27 36.1683 9.12862C36.2021 9.75606 36.6533 10.2844 37.3243 10.4551C37.5217 10.5046 37.7304 10.5266 37.9334 10.5321C38.3902 10.5431 38.8526 10.5321 39.315 10.5376C39.5349 10.5431 39.6928 10.6532 39.7154 10.8789C39.7379 11.11 39.6026 11.2366 39.3827 11.2806C39.2755 11.3027 39.1571 11.3082 39.05 11.3082C38.2605 11.3082 37.471 11.3247 36.6815 11.3027C36.3826 11.2917 36.3036 11.3907 36.3318 11.6604C36.3544 11.8806 36.3431 12.1007 36.3318 12.3209C36.3205 12.508 36.3882 12.5796 36.5856 12.5741C37.5443 12.5631 38.5029 12.6016 39.456 12.552C39.8282 12.5355 40.2342 12.3979 40.5556 12.1998C41.2098 11.809 41.3282 11.1486 41.2154 10.4606ZM46.0934 9.668C45.7212 9.32676 45.2419 9.26621 44.7569 9.2497C44.3058 9.23869 43.8546 9.25521 43.4035 9.23869C43.099 9.22768 42.9072 8.9635 43.0595 8.73233C43.1328 8.61675 43.3414 8.51768 43.4937 8.51218C44.2043 8.49016 44.9204 8.50667 45.6366 8.49566C45.7381 8.49566 45.8904 8.46264 45.9242 8.39659C46.1216 8.03334 46.2908 7.65907 46.4825 7.25178C46.3697 7.22976 46.319 7.20775 46.2626 7.20775C45.2926 7.20775 44.3283 7.17473 43.3584 7.22426C42.9749 7.24077 42.5576 7.36736 42.2192 7.5545C41.6046 7.90124 41.4072 8.49566 41.4918 9.16164C41.5764 9.83862 41.9711 10.2844 42.6535 10.4606C42.8508 10.5101 43.0595 10.5321 43.2625 10.5376C43.7136 10.5486 44.1648 10.5376 44.6159 10.5431C44.8471 10.5486 45.022 10.6367 45.0332 10.8954C45.0502 11.143 44.9092 11.2696 44.6667 11.2917C44.5257 11.3082 44.3847 11.3192 44.2437 11.3192C43.4712 11.3192 42.7042 11.3247 41.9316 11.3137C41.7173 11.3137 41.6215 11.3632 41.6327 11.5889C41.6497 11.8255 41.6497 12.0677 41.6327 12.3044C41.6215 12.5245 41.7117 12.5851 41.926 12.5851C42.7888 12.5741 43.6516 12.5851 44.5201 12.5796C44.7513 12.5796 44.9938 12.5686 45.2193 12.5135C45.8735 12.3594 46.3303 11.9796 46.5051 11.3357C46.6743 10.7192 46.601 10.1303 46.0934 9.668ZM7.44178 5.49053C6.70868 3.86687 5.96993 2.24322 5.24246 0.614061C5.16351 0.44344 5.05073 0.388401 4.87591 0.393904C4.43041 0.399408 3.99054 0.404912 3.55068 0.388401C3.30819 0.377393 3.18412 0.470959 3.08826 0.685612C2.37771 2.27624 1.65588 3.85587 0.93969 5.44099C0.900215 5.52906 0.872019 5.62262 0.826904 5.76022C1.37391 5.76022 1.87581 5.76572 2.37771 5.75472C2.4341 5.75472 2.50741 5.66115 2.54125 5.5951C2.65403 5.36394 2.73298 5.11626 2.85705 4.8906C2.90216 4.80804 3.03186 4.71998 3.12209 4.71998C3.81572 4.70347 4.51499 4.70897 5.20863 4.71998C5.29322 4.71998 5.41164 4.80254 5.45112 4.87959C5.57518 5.10525 5.65977 5.34743 5.77255 5.57859C5.80639 5.65014 5.89098 5.75472 5.95301 5.75472C6.46619 5.77123 6.97936 5.76022 7.53201 5.76022C7.49254 5.64464 7.47562 5.56208 7.44178 5.49053ZM3.46609 3.44307C3.6973 2.90919 3.91159 2.40283 4.15972 1.83043C4.40221 2.40283 4.62214 2.90919 4.85335 3.44307H3.46609ZM39.862 5.49053C39.1345 3.87238 38.4014 2.25973 37.674 0.641581C37.595 0.465455 37.4879 0.388401 37.2905 0.393904C36.8506 0.404912 36.4051 0.410416 35.9653 0.393904C35.7228 0.382897 35.5987 0.476463 35.5028 0.691116C34.7923 2.28725 34.0705 3.87238 33.3543 5.46851C33.3148 5.55107 33.2923 5.63363 33.2471 5.76022C33.7885 5.76022 34.296 5.76572 34.7979 5.75472C34.8543 5.75472 34.9333 5.66665 34.9671 5.60061C35.0743 5.37495 35.1701 5.14929 35.2604 4.91812C35.3167 4.76952 35.4013 4.70897 35.5705 4.70897C36.2472 4.71998 36.9239 4.71998 37.6007 4.70897C37.7755 4.70897 37.8544 4.77502 37.9108 4.92362C37.9954 5.14378 38.0913 5.36394 38.1984 5.57859C38.2379 5.65014 38.3112 5.75472 38.3789 5.75472C38.8921 5.77123 39.4052 5.76022 39.9579 5.76022C39.9128 5.63913 39.8959 5.56208 39.862 5.49053ZM35.892 3.44307C36.1175 2.9147 36.3318 2.40834 36.58 1.82492C36.8281 2.39733 37.048 2.90919 37.2792 3.44307H35.892ZM20.2091 4.49432C19.4309 4.50533 18.6527 4.49982 17.8688 4.49982C17.3105 4.49982 17.3895 4.57137 17.3726 4.01548C17.3669 3.78982 17.4346 3.71276 17.6714 3.71827C18.5004 3.72928 19.3237 3.71827 20.1527 3.72928C20.3557 3.72928 20.446 3.68524 20.4347 3.47059C20.4178 3.22292 20.4178 2.97524 20.4347 2.72756C20.446 2.52392 20.3783 2.45787 20.164 2.45787C19.4027 2.46888 18.6414 2.46338 17.8801 2.46338C17.3105 2.46338 17.3951 2.51291 17.3726 1.98454C17.3613 1.73136 17.4571 1.68182 17.6996 1.68182C18.5455 1.69283 19.3914 1.68182 20.2373 1.69283C20.4572 1.69283 20.5418 1.61577 20.5306 1.40662C20.5193 1.16996 20.5193 0.927784 20.5306 0.691116C20.5418 0.476463 20.446 0.399408 20.2317 0.399408C18.8726 0.404912 17.5079 0.404912 16.1488 0.399408C15.9289 0.399408 15.8612 0.476463 15.8612 0.691116C15.8725 1.48918 15.8669 2.28725 15.8669 3.08532C15.8669 3.8999 15.8669 4.71998 15.8669 5.53456C15.8669 5.68316 15.8894 5.77123 16.0755 5.77123C17.4853 5.76572 18.8952 5.76572 20.305 5.77123C20.4854 5.77123 20.5306 5.68867 20.5306 5.53456C20.5249 5.29789 20.5193 5.05572 20.5362 4.81905C20.5418 4.57688 20.4629 4.48882 20.2091 4.49432ZM32.8524 8.50667C33.6757 8.50117 34.5047 8.49566 35.3337 8.50667C35.5705 8.50667 35.6551 8.42962 35.6438 8.20396C35.6326 7.97279 35.6326 7.74713 35.6438 7.51597C35.6608 7.2738 35.5592 7.19674 35.3167 7.20224C33.9746 7.21325 32.6325 7.21325 31.2903 7.20224C31.0365 7.20224 30.9745 7.29031 30.9801 7.52147C30.9914 8.30853 30.9858 9.09559 30.9858 9.88815C30.9858 10.7027 30.9858 11.5173 30.9858 12.3374C30.9858 12.5025 31.014 12.5906 31.2114 12.5906C32.6099 12.5851 34.0084 12.5851 35.407 12.5906C35.5762 12.5906 35.6438 12.519 35.6438 12.3649C35.6438 12.1062 35.6382 11.8531 35.6438 11.5944C35.6495 11.3962 35.5762 11.3192 35.3619 11.3247C34.5555 11.3357 33.749 11.3302 32.937 11.3302C32.4915 11.3302 32.4915 11.3302 32.4915 10.9064C32.4915 10.5541 32.4915 10.5541 32.8637 10.5541C33.6644 10.5541 34.4596 10.5486 35.2604 10.5596C35.4859 10.5651 35.5592 10.4936 35.548 10.2734C35.531 10.0478 35.5254 9.8166 35.548 9.58544C35.5705 9.32676 35.4634 9.2497 35.2152 9.25521C34.4088 9.26621 33.6024 9.26071 32.7904 9.25521C32.7001 9.25521 32.5422 9.23319 32.5366 9.20017C32.5084 9.00203 32.4858 8.79838 32.5197 8.60574C32.5253 8.5507 32.734 8.50667 32.8524 8.50667ZM12.1111 11.3137C11.2652 11.3247 10.4193 11.3082 9.57343 11.3247C9.3253 11.3302 9.22379 11.2531 9.25763 11.011C9.26891 10.9449 9.26327 10.8844 9.25763 10.8183C9.22943 10.6037 9.31966 10.5321 9.53959 10.5376C10.3686 10.5486 11.1919 10.5321 12.0209 10.5486C12.2577 10.5541 12.3423 10.4661 12.331 10.2459C12.3198 10.0147 12.3198 9.78908 12.331 9.55792C12.3423 9.31575 12.2352 9.23869 11.9983 9.2442C11.1919 9.2552 10.3798 9.23319 9.57343 9.25521C9.22943 9.26621 9.25763 9.08458 9.25199 8.85892C9.24635 8.62776 9.25763 8.48466 9.57343 8.49566C10.4024 8.51768 11.2257 8.49016 12.0547 8.50667C12.348 8.51218 12.4382 8.41861 12.4156 8.14341C12.3931 7.93427 12.3987 7.71961 12.4156 7.51046C12.4382 7.26279 12.3254 7.19674 12.0885 7.19674C10.7464 7.20775 9.39861 7.20775 8.05646 7.19674C7.8027 7.19674 7.74066 7.2848 7.7463 7.52147C7.75758 8.30853 7.75194 9.1011 7.75194 9.88815C7.75194 10.6587 7.75194 11.4293 7.75194 12.1998C7.75194 12.5796 7.75194 12.5796 8.15797 12.5796C8.42302 12.5796 8.68242 12.5796 8.94747 12.5796C10.0077 12.5796 11.0735 12.5741 12.1337 12.5851C12.3592 12.5851 12.4382 12.5135 12.4213 12.2989C12.4044 12.0677 12.4044 11.8365 12.4213 11.6109C12.4325 11.3852 12.348 11.3137 12.1111 11.3137ZM25.1322 3.85587C25.2619 3.80633 25.3521 3.77331 25.448 3.73478C26.2319 3.41005 26.621 2.71656 26.5138 1.84143C26.4236 1.12042 25.792 0.487471 24.9912 0.44344C23.869 0.382897 22.7412 0.404912 21.6133 0.393904C21.4723 0.393904 21.3934 0.44344 21.3934 0.603053C21.399 2.25423 21.399 3.9054 21.3934 5.55107C21.3934 5.71068 21.4554 5.76022 21.6077 5.75472C21.9573 5.74921 22.3013 5.74371 22.6509 5.75472C22.8483 5.76022 22.916 5.69417 22.9103 5.50154C22.8991 5.05021 22.8991 4.6044 22.9103 4.15308C22.9103 4.07602 22.978 3.93842 23.0344 3.93292C23.2149 3.8999 23.3897 3.89439 23.5363 4.07602C23.931 4.54936 24.3596 5.00068 24.7657 5.47402C24.9348 5.66665 25.104 5.77673 25.386 5.76022C25.7976 5.7327 26.2093 5.75472 26.6266 5.74921C26.6943 5.74921 26.762 5.7327 26.8804 5.71619C26.2826 5.08874 25.7187 4.48882 25.1322 3.85587ZM24.5344 2.65601C24.0382 2.69454 23.5419 2.67803 23.0457 2.67252C23.0006 2.67252 22.9498 2.58446 22.916 2.53493C22.9047 2.51841 22.916 2.47989 22.9103 2.45237C22.8765 1.68182 22.8765 1.68182 23.7844 1.68182C24.01 1.68182 24.2356 1.67081 24.4611 1.68732C24.7769 1.70384 24.9799 1.88546 25.0081 2.14415C25.0251 2.40283 24.8559 2.62849 24.5344 2.65601ZM28.888 10.6752C28.9895 10.6367 29.0459 10.6092 29.1079 10.5872C29.9143 10.2789 30.3824 9.55792 30.2865 8.78187C30.1737 7.91775 29.6154 7.31783 28.7075 7.26279C27.5853 7.19124 26.4574 7.21876 25.3296 7.20775C25.166 7.20775 25.1266 7.30132 25.1266 7.43891C25.1266 9.07908 25.1266 10.7192 25.1266 12.3594C25.1266 12.5245 25.1942 12.5851 25.3634 12.5851C25.7018 12.5796 26.0401 12.5686 26.3785 12.5906C26.6097 12.6016 26.6774 12.5135 26.6717 12.3044C26.6661 11.8641 26.6717 11.4237 26.6717 10.9834C26.6717 10.8073 26.7507 10.7137 26.9255 10.7523C27.0496 10.7798 27.2018 10.8293 27.2808 10.9174C27.6417 11.3027 28.0082 11.6879 28.3353 12.1007C28.6173 12.4585 28.9274 12.6786 29.4181 12.5961C29.6267 12.5576 29.8466 12.5906 30.0666 12.5906H30.5798C30.5854 12.5631 30.591 12.5355 30.6023 12.5135C30.0327 11.9026 29.4745 11.3082 28.888 10.6752ZM28.262 9.45885C27.8052 9.47536 27.3372 9.51939 26.886 9.45885C26.4292 9.39831 26.745 8.99652 26.6717 8.75985C26.621 8.59474 26.7056 8.48466 26.9142 8.49566C27.1285 8.50667 27.3428 8.50117 27.5627 8.50117C27.7883 8.50117 28.0139 8.49016 28.2395 8.50117C28.5496 8.51768 28.7357 8.70481 28.7357 8.98551C28.7357 9.27172 28.5778 9.44784 28.262 9.45885ZM45.7212 0.724139C45.7212 0.476463 45.6423 0.371889 45.3829 0.388401C45.0953 0.404912 44.802 0.399408 44.5088 0.388401C44.2607 0.377393 44.1817 0.476463 44.1873 0.713131C44.1986 1.54973 44.193 2.38082 44.193 3.21741C44.193 3.29447 44.1817 3.36602 44.1704 3.49811C44.0858 3.37152 44.0351 3.29997 43.9787 3.22292C43.3866 2.3588 42.7888 1.48918 42.1967 0.619565C42.0952 0.465455 41.9767 0.388401 41.785 0.393904C41.3508 0.404912 40.9222 0.404912 40.488 0.393904C40.2511 0.388401 40.1609 0.459951 40.1665 0.707628C40.1835 1.62678 40.1722 2.54043 40.1722 3.45958C40.1722 4.13657 40.1778 4.81905 40.1665 5.49603C40.1665 5.69417 40.2173 5.79324 40.4316 5.76572C40.488 5.76022 40.5444 5.76572 40.6008 5.76572C40.9448 5.75472 41.2887 5.74371 41.6327 5.7327C41.6497 5.39696 41.6722 5.06122 41.6779 4.72548C41.6835 4.01548 41.6779 3.29997 41.6779 2.52942C41.7681 2.65601 41.8188 2.72756 41.8696 2.79911C42.4956 3.71827 43.1102 4.63192 43.7418 5.54557C43.8095 5.63913 43.9336 5.74921 44.0351 5.75472C44.5708 5.77673 45.1065 5.76572 45.7156 5.76572V4.79703C45.7212 3.44307 45.7156 2.08361 45.7212 0.724139ZM14.8349 0.6691C14.8349 0.465455 14.7503 0.388401 14.5529 0.393904C14.1694 0.399408 13.7803 0.393904 13.3969 0.393904C12.5002 0.393904 12.5002 0.393904 12.2013 1.21399C11.9081 2.01205 11.6092 2.81012 11.2991 3.64672C11.2596 3.55865 11.2427 3.50912 11.2201 3.45958C10.8817 2.53493 10.5321 1.60477 10.1881 0.674604C10.1317 0.520494 10.0753 0.388401 9.86667 0.393904C9.23507 0.399408 8.60911 0.393904 7.97751 0.393904C7.81961 0.393904 7.74066 0.448944 7.74066 0.619565C7.7463 2.25973 7.7463 3.9054 7.74066 5.54557C7.74066 5.72169 7.81961 5.76022 7.97751 5.76022C8.30459 5.75472 8.63731 5.74371 8.96439 5.76572C9.1956 5.77673 9.25199 5.68317 9.25199 5.47402C9.24635 4.4668 9.24635 3.45408 9.24635 2.44686V2.23772C9.6411 3.2009 9.99638 4.16408 10.3629 5.12727C10.6054 5.76572 10.6054 5.76572 11.2934 5.76572C11.9588 5.76572 11.9532 5.76572 12.1844 5.14929C12.551 4.16959 12.9175 3.1954 13.2841 2.2212C13.2954 2.2212 13.3123 2.2212 13.3236 2.22671V2.3533C13.3236 3.39904 13.3292 4.44478 13.3179 5.49053C13.3179 5.70518 13.3743 5.78774 13.5999 5.77123C13.91 5.75472 14.2202 5.75472 14.5304 5.77123C14.7503 5.78224 14.8292 5.71068 14.8292 5.49053C14.8292 3.88339 14.8292 2.27624 14.8349 0.6691Z" fill="#333333"/>
</svg>