<svg xmlns="http://www.w3.org/2000/svg" width="74" height="14" viewBox="0 0 74 14" fill="none">
<rect width="73.0623" height="12.8272" fill="black" fill-opacity="0" transform="translate(0.356628 0.606995)"/>
<rect width="20.6661" height="12.8272" fill="black" fill-opacity="0" transform="translate(0.356628 0.606995)"/>
<rect width="20.6661" height="12.8272" fill="black" fill-opacity="0" transform="translate(0.356628 0.606995)"/>
<path d="M8.25567 7.01913C8.25567 5.06032 9.16079 3.19055 10.7048 1.97964C7.91847 -0.210662 3.90757 0.270137 1.72465 3.06589C-0.458272 5.86165 0.0209062 9.86831 2.80724 12.0586C5.13214 13.8928 8.3799 13.8928 10.7048 12.0586C9.16079 10.8477 8.25567 8.99575 8.25567 7.01913Z" fill="#333333" fill-opacity="0.8"/>
<path d="M10.6875 12.0582C13.0124 13.8924 16.2602 13.8924 18.5851 12.0582C21.3537 9.86789 21.8329 5.84342 19.6677 3.06547C17.5025 0.287523 13.4739 -0.211084 10.6875 1.97922C12.2315 3.19012 13.1367 5.0599 13.1367 7.01871C13.1367 8.99533 12.2315 10.8473 10.6875 12.0582Z" fill="#333333" fill-opacity="0.8"/>
<path d="M10.6872 1.97977C12.2313 3.19067 13.1364 5.06044 13.1364 7.01925C13.1364 8.97806 12.2313 10.8478 10.6872 12.0587C9.16097 10.8478 8.25586 8.99587 8.25586 7.01925C8.25586 5.06044 9.16097 3.19067 10.6872 1.97977Z" fill="#333333"/>
<rect width="48.1162" height="6.12425" fill="black" fill-opacity="0" transform="translate(25.3027 3.17783)"/>
<rect width="48.1162" height="6.12425" fill="black" fill-opacity="0" transform="translate(25.3027 3.17783)"/>
<rect width="48.1162" height="6.12425" fill="black" fill-opacity="0" transform="translate(25.3027 3.17783)"/>
<path d="M32.0609 9.15425V6.48302C32.0609 5.47508 31.4181 4.79659 30.3834 4.78768C30.0887 4.76863 29.7943 4.82897 29.5309 4.9624C29.2675 5.09583 29.0447 5.29747 28.8857 5.54631C28.7409 5.30486 28.5336 5.10695 28.2857 4.97344C28.0378 4.83992 27.7584 4.77575 27.4771 4.78768C27.2321 4.77585 26.9883 4.8281 26.7697 4.93928C26.5511 5.05046 26.3653 5.21672 26.2305 5.42165V4.88741H25.3027V9.15425H26.2394V6.7911C26.2394 6.05028 26.649 5.6585 27.283 5.6585C27.917 5.6585 28.2108 6.05919 28.2108 6.7822V9.15425H29.1422V6.7911C29.1422 6.05028 29.5696 5.6585 30.1857 5.6585C30.8019 5.6585 31.1224 6.05919 31.1224 6.7822V9.15425H32.0609ZM45.921 4.89097H44.4055V3.5981H43.4688V4.89097H42.6034V5.73864H43.4688V7.68151C43.4688 8.67164 43.8517 9.26109 44.9487 9.26109C45.3584 9.26242 45.7602 9.14824 46.108 8.93164L45.8409 8.1374C45.592 8.28567 45.3095 8.36838 45.0199 8.37781C44.5569 8.37781 44.4038 8.09288 44.4038 7.66548V5.73864H45.9192L45.921 4.89097ZM53.8332 4.78412C53.607 4.77753 53.3832 4.83212 53.1854 4.94213C52.9876 5.05215 52.8232 5.21351 52.7095 5.40919V4.89097H51.7906V9.15425H52.7184V6.76439C52.7184 6.05206 53.0211 5.66741 53.6284 5.66741C53.8271 5.66453 54.0243 5.70084 54.2089 5.77426L54.4939 4.89988C54.2818 4.82404 54.0584 4.78489 53.8332 4.78412ZM41.8715 5.22933C41.3462 4.91724 40.7422 4.76271 40.1316 4.78412C39.0524 4.78412 38.3508 5.30234 38.3508 6.14823C38.3508 6.84453 38.8672 7.27192 39.8217 7.40548L40.258 7.46781C40.7656 7.53905 41.0078 7.67261 41.0078 7.91302C41.0078 8.24247 40.6694 8.43123 40.0354 8.43123C39.524 8.44748 39.022 8.29061 38.6108 7.98603L38.1887 8.70726C38.729 9.08503 39.3764 9.27919 40.0354 9.26109C41.266 9.26109 41.9801 8.68055 41.9801 7.87028C41.9801 7.12055 41.4173 6.72877 40.4913 6.59521L40.055 6.53288C39.6543 6.47946 39.332 6.39932 39.332 6.11439C39.332 5.80275 39.6347 5.61576 40.1441 5.61576C40.6107 5.62266 41.0679 5.7483 41.4725 5.98083L41.8715 5.22933ZM66.7174 4.78412C66.4912 4.77753 66.2674 4.83212 66.0696 4.94213C65.8718 5.05215 65.7074 5.21351 65.5937 5.40919V4.89097H64.6748V9.15425H65.6026V6.76439C65.6026 6.05206 65.9053 5.66741 66.5126 5.66741C66.7113 5.66453 66.9085 5.70084 67.0931 5.77426L67.3781 4.89988C67.166 4.82404 66.9426 4.78489 66.7174 4.78412ZM54.7699 7.02261C54.7699 8.31548 55.671 9.26109 57.044 9.26109C57.6007 9.28864 58.1477 9.10697 58.5773 8.75178L58.1321 8.00206C57.8114 8.2463 57.4204 8.38058 57.0173 8.38493C56.2765 8.38493 55.7333 7.84 55.7333 7.02083C55.7333 6.20165 56.2783 5.66563 57.0173 5.65672C57.4204 5.66108 57.8114 5.79535 58.1321 6.0396L58.5773 5.28987C58.1477 4.93469 57.6007 4.75302 57.044 4.78056C55.671 4.78056 54.7699 5.72617 54.7699 7.01905V7.02261ZM63.4567 7.02261V4.88563H62.5289V5.40385C62.3707 5.19972 62.166 5.03646 61.9317 4.92771C61.6975 4.81896 61.4406 4.76789 61.1826 4.77878C59.9877 4.77878 59.0456 5.71549 59.0456 7.01727C59.0456 8.31904 59.9824 9.25575 61.1826 9.25575C61.4406 9.26664 61.6975 9.21557 61.9317 9.10683C62.166 8.99808 62.3707 8.83481 62.5289 8.63069V9.14712H63.4567V7.02261ZM60.0055 7.02261C60.0055 6.27288 60.4952 5.6585 61.2984 5.6585C62.0659 5.6585 62.5823 6.24795 62.5823 7.02261C62.5823 7.79726 62.0659 8.38671 61.2984 8.38671C60.4952 8.38671 60.0055 7.77055 60.0055 7.02261ZM48.8113 4.78412C47.5647 4.78412 46.6886 5.69412 46.6886 7.02261C46.6886 8.37781 47.5986 9.26109 48.8736 9.26109C49.5103 9.2834 50.1328 9.07039 50.6224 8.66274L50.1683 7.97535C49.8141 8.25873 49.3753 8.41545 48.9217 8.42055C48.3233 8.42055 47.7802 8.14452 47.6466 7.37699H50.8129C50.8218 7.26124 50.8307 7.14548 50.8307 7.02083C50.8307 5.69234 50.0009 4.78234 48.806 4.78234L48.8113 4.78412ZM48.7935 5.61398C49.3918 5.61398 49.7747 5.98795 49.8727 6.64864H47.6627C47.7606 6.03247 48.1346 5.61398 48.7953 5.61398H48.7935ZM72.0598 7.02261V3.17783H71.132V5.40741C70.9739 5.20328 70.7691 5.04002 70.5349 4.93127C70.3006 4.82252 70.0438 4.77145 69.7857 4.78234C68.5908 4.78234 67.6488 5.71905 67.6488 7.02083C67.6488 8.3226 68.5855 9.25931 69.7857 9.25931C70.0438 9.2702 70.3006 9.21914 70.5349 9.11039C70.7691 9.00164 70.9739 8.83837 71.132 8.63425V9.15068H72.0598V7.02261ZM73.1444 8.76069C73.1811 8.76054 73.2174 8.76781 73.2512 8.78205C73.2838 8.79595 73.3134 8.81589 73.3385 8.84082C73.3634 8.86529 73.3833 8.89431 73.3972 8.9263C73.4115 8.95948 73.4189 8.99523 73.4189 9.03137C73.4189 9.0675 73.4115 9.10326 73.3972 9.13644C73.3833 9.16841 73.3633 9.19742 73.3385 9.22192C73.3133 9.24675 73.2837 9.26668 73.2512 9.28068C73.2174 9.29507 73.1811 9.30235 73.1444 9.30205C73.0901 9.30273 73.0368 9.28738 72.9912 9.25792C72.9456 9.22846 72.9096 9.18621 72.8879 9.13644C72.8737 9.10323 72.8664 9.06749 72.8664 9.03137C72.8664 8.99525 72.8737 8.95951 72.8879 8.9263C72.9158 8.86091 72.9682 8.8091 73.034 8.78205C73.07 8.76704 73.1089 8.75977 73.1479 8.76069H73.1444ZM73.1444 9.24151C73.1725 9.24195 73.2004 9.23649 73.2263 9.22548C73.2508 9.21485 73.2732 9.19976 73.2922 9.18096C73.3318 9.14124 73.354 9.08745 73.354 9.03137C73.354 8.97529 73.3318 8.9215 73.2922 8.88178C73.2732 8.86288 73.2509 8.84777 73.2263 8.83726C73.2004 8.82635 73.1725 8.82089 73.1444 8.82123C73.1157 8.82085 73.0872 8.82631 73.0607 8.83726C73.0289 8.85082 73.0009 8.87193 72.9792 8.89877C72.9575 8.9256 72.9426 8.95734 72.936 8.99122C72.9293 9.0251 72.931 9.06009 72.9409 9.09316C72.9509 9.12623 72.9687 9.15637 72.993 9.18096C73.0125 9.20001 73.0355 9.21513 73.0607 9.22548C73.0883 9.23697 73.118 9.24243 73.1479 9.24151H73.1444ZM73.1604 8.90315C73.1871 8.90128 73.2135 8.90885 73.2352 8.92452C73.244 8.93152 73.2509 8.94049 73.2556 8.9507C73.2602 8.96092 73.2624 8.97208 73.2619 8.98329C73.2622 8.99292 73.2605 9.00251 73.2568 9.01142C73.2531 9.02033 73.2476 9.02834 73.2405 9.03493C73.2242 9.04946 73.2036 9.05822 73.1818 9.05986L73.2637 9.15425H73.1996L73.123 9.05986H73.0981V9.15425H73.0446V8.90493L73.1604 8.90315ZM73.0981 8.94945V9.01712H73.1604C73.1714 9.02034 73.1832 9.02034 73.1942 9.01712C73.1983 9.01438 73.2015 9.01065 73.2037 9.00629C73.2059 9.00192 73.2069 8.99707 73.2067 8.99219C73.2069 8.98732 73.2059 8.98246 73.2037 8.9781C73.2015 8.97373 73.1983 8.97 73.1942 8.96726C73.1832 8.96404 73.1714 8.96404 73.1604 8.96726L73.0981 8.94945ZM68.6122 7.02261C68.6122 6.27288 69.1019 5.6585 69.9051 5.6585C70.6726 5.6585 71.189 6.24795 71.189 7.02261C71.189 7.79726 70.6726 8.38671 69.9051 8.38671C69.1019 8.38671 68.6122 7.77055 68.6122 7.02261ZM37.2876 7.02261V4.88563H36.3598V5.40385C36.2016 5.20146 35.9974 5.03967 35.7643 4.9319C35.5311 4.82413 35.2755 4.77347 35.0189 4.78412C33.8239 4.78412 32.8819 5.72083 32.8819 7.02261C32.8819 8.32439 33.8186 9.26109 35.0189 9.26109C35.2769 9.27198 35.5337 9.22092 35.768 9.11217C36.0022 9.00342 36.207 8.84015 36.3652 8.63603V9.15246H37.293L37.2876 7.02261ZM33.8364 7.02261C33.8364 6.27288 34.3261 5.6585 35.1293 5.6585C35.8968 5.6585 36.4132 6.24795 36.4132 7.02261C36.4132 7.79726 35.8968 8.38671 35.1293 8.38671C34.3261 8.38671 33.8364 7.77233 33.8364 7.02261Z" fill="#231F20"/>
</svg>