<svg xmlns="http://www.w3.org/2000/svg" width="63" height="17" viewBox="0 0 63 17" fill="none">
<rect width="62.1771" height="15.1828" fill="black" fill-opacity="0" transform="translate(0.165527 0.923828)"/>
<path d="M23.4151 4.31885H19.9743C19.7389 4.31885 19.5386 4.4899 19.5019 4.72234L18.1103 13.5454C18.0826 13.7194 18.2175 13.8764 18.3941 13.8764H20.0367C20.2722 13.8764 20.4724 13.7053 20.5091 13.4724L20.8844 11.0927C20.9207 10.8598 21.1214 10.6887 21.3564 10.6887H22.4456C24.7121 10.6887 26.0202 9.59193 26.3618 7.4185C26.5157 6.46763 26.3683 5.72051 25.9231 5.19728C25.4341 4.62273 24.5667 4.31885 23.4151 4.31885ZM23.812 7.54126C23.6239 8.77589 22.6805 8.77589 21.7684 8.77589H21.2492L21.6134 6.47014C21.6351 6.33078 21.7558 6.22815 21.8967 6.22815H22.1347C22.756 6.22815 23.3421 6.22815 23.645 6.58233C23.8256 6.79364 23.881 7.10758 23.812 7.54126Z" fill="#333333"/>
<path d="M33.6999 7.50249H32.0522C31.9118 7.50249 31.7906 7.60513 31.7689 7.74449L31.696 8.20533L31.5808 8.0383C31.2241 7.5206 30.4287 7.34753 29.6348 7.34753C27.814 7.34753 26.2589 8.72656 25.956 10.661C25.7986 11.626 26.0224 12.5487 26.5698 13.1921C27.0719 13.7838 27.7904 14.0303 28.6451 14.0303C30.1122 14.0303 30.9257 13.087 30.9257 13.087L30.8523 13.5448C30.8246 13.7199 30.9594 13.8769 31.135 13.8769H32.6192C32.8552 13.8769 33.0544 13.7058 33.0916 13.4729L33.9821 7.83354C34.0103 7.65996 33.876 7.50249 33.6999 7.50249ZM31.4032 10.7093C31.2442 11.6506 30.4971 12.2825 29.5442 12.2825C29.0657 12.2825 28.6834 12.1291 28.4379 11.8383C28.1944 11.5495 28.1018 11.1385 28.1793 10.6806C28.3277 9.74736 29.0874 9.09483 30.0257 9.09483C30.4936 9.09483 30.8739 9.25029 31.1245 9.5436C31.3755 9.83994 31.4751 10.2535 31.4032 10.7093Z" fill="#333333"/>
<path d="M42.4753 7.50134H40.8196C40.6616 7.50134 40.5132 7.57983 40.4237 7.71114L38.14 11.0749L37.1721 7.84245C37.1112 7.6402 36.9245 7.50134 36.7132 7.50134H35.0862C34.8884 7.50134 34.7511 7.69454 34.814 7.88069L36.6378 13.2328L34.9232 15.6532C34.7883 15.8439 34.9242 16.106 35.1571 16.106H36.8108C36.9678 16.106 37.1147 16.0295 37.2038 15.9007L42.7108 7.95163C42.8426 7.76145 42.7073 7.50134 42.4753 7.50134Z" fill="#333333"/>
<path d="M47.9571 4.31885H44.5158C44.2809 4.31885 44.0806 4.4899 44.0439 4.72234L42.6523 13.5454C42.6246 13.7194 42.7595 13.8764 42.935 13.8764H44.701C44.865 13.8764 45.0053 13.7567 45.031 13.5937L45.4259 11.0927C45.4622 10.8598 45.6629 10.6887 45.8979 10.6887H46.9866C49.2536 10.6887 50.5612 9.59193 50.9033 7.4185C51.0577 6.46763 50.9093 5.72051 50.4641 5.19728C49.9755 4.62273 49.1087 4.31885 47.9571 4.31885ZM48.354 7.54126C48.1664 8.77589 47.223 8.77589 46.3104 8.77589H45.7917L46.1564 6.47014C46.1781 6.33078 46.2978 6.22815 46.4392 6.22815H46.6772C47.298 6.22815 47.8846 6.22815 48.1875 6.58233C48.3681 6.79364 48.423 7.10758 48.354 7.54126Z" fill="#333333" fill-opacity="0.8"/>
<path d="M58.2419 7.50249H56.5952C56.4539 7.50249 56.3336 7.60513 56.3125 7.74449L56.2395 8.20533L56.1238 8.0383C55.7671 7.5206 54.9722 7.34753 54.1783 7.34753C52.3576 7.34753 50.8029 8.72656 50.5001 10.661C50.3431 11.626 50.566 12.5487 51.1134 13.1921C51.6165 13.7838 52.3339 14.0303 53.1887 14.0303C54.6558 14.0303 55.4693 13.087 55.4693 13.087L55.3958 13.5448C55.3682 13.7199 55.503 13.8769 55.6796 13.8769H57.1633C57.3982 13.8769 57.5984 13.7058 57.6352 13.4729L58.5262 7.83354C58.5533 7.65996 58.4185 7.50249 58.2419 7.50249ZM55.9452 10.7093C55.7872 11.6506 55.0391 12.2825 54.0862 12.2825C53.6088 12.2825 53.2254 12.1291 52.9799 11.8383C52.7364 11.5495 52.6448 11.1385 52.7213 10.6806C52.8707 9.74736 53.6294 9.09483 54.5677 9.09483C55.0356 9.09483 55.416 9.25029 55.6665 9.5436C55.9186 9.83994 56.0182 10.2535 55.9452 10.7093Z" fill="#333333" fill-opacity="0.8"/>
<path d="M60.1839 4.56135L58.7717 13.5459C58.744 13.7199 58.8788 13.8769 59.0544 13.8769H60.4742C60.7102 13.8769 60.9104 13.7059 60.9466 13.4729L62.3392 4.6504C62.3669 4.47632 62.2321 4.31885 62.0565 4.31885H60.4667C60.3263 4.31935 60.2055 4.42198 60.1839 4.56135Z" fill="#333333" fill-opacity="0.8"/>
<path d="M11.7606 4.78186C11.7465 4.87192 11.7304 4.96399 11.7123 5.05857C11.0899 8.25381 8.96077 9.35763 6.24146 9.35763H4.85691C4.52435 9.35763 4.24412 9.59913 4.1923 9.92715L3.48342 14.4229L3.28268 15.6973C3.24897 15.9126 3.415 16.1068 3.63234 16.1068H6.08802C6.37881 16.1068 6.62584 15.8955 6.67162 15.6088L6.69577 15.484L7.15813 12.5499L7.18781 12.3889C7.23309 12.1011 7.48062 11.8898 7.77142 11.8898H8.13869C10.5179 11.8898 12.3804 10.9238 12.9248 8.12854C13.1522 6.96082 13.0344 5.9858 12.4327 5.30006C12.2506 5.09328 12.0247 4.92172 11.7606 4.78186Z" fill="#333333" fill-opacity="0.8"/>
<path d="M11.1108 4.5216C11.0158 4.49393 10.9177 4.46877 10.817 4.44613C10.7159 4.424 10.6123 4.40437 10.5056 4.38727C10.1323 4.32689 9.72327 4.29822 9.28506 4.29822H5.58621C5.49515 4.29822 5.40861 4.31885 5.33113 4.35608C5.16058 4.43808 5.0338 4.59958 5.00311 4.7973L4.21624 9.7811L4.1936 9.9265C4.24542 9.59847 4.52566 9.35698 4.85821 9.35698H6.24277C8.96207 9.35698 11.0912 8.25265 11.7136 5.05791C11.7322 4.96333 11.7478 4.87126 11.7619 4.7812C11.6044 4.69769 11.4338 4.62624 11.2502 4.56537C11.2049 4.55028 11.1581 4.53569 11.1108 4.5216Z" fill="#333333"/>
<path d="M5.00241 4.79726C5.0331 4.59954 5.15988 4.43804 5.33044 4.35654C5.40842 4.31931 5.49445 4.29868 5.58551 4.29868H9.28437C9.72258 4.29868 10.1316 4.32736 10.5049 4.38773C10.6116 4.40484 10.7152 4.42446 10.8163 4.4466C10.917 4.46924 11.0151 4.49439 11.1102 4.52206C11.1574 4.53615 11.2042 4.55074 11.25 4.56533C11.4336 4.62621 11.6042 4.69815 11.7617 4.78116C11.9468 3.60037 11.7602 2.7964 11.1217 2.0684C10.4179 1.26695 9.14752 0.923828 7.52198 0.923828H2.80282C2.47077 0.923828 2.18752 1.16532 2.1362 1.49385L0.170553 13.9533C0.131813 14.1999 0.321989 14.4222 0.570524 14.4222H3.48403L4.21555 9.78106L5.00241 4.79726Z" fill="#333333" fill-opacity="0.8"/>
</svg>