<svg xmlns="http://www.w3.org/2000/svg" width="40" height="13" viewBox="0 0 40 13" fill="none">
<rect width="39" height="12" fill="black" fill-opacity="0" transform="translate(0.165527 0.515381)"/>
<path d="M17.066 12.3413H13.9067L15.8828 0.724976H19.0419L17.066 12.3413Z" fill="#333333"/>
<path d="M28.5187 1.00993C27.8956 0.774894 26.9072 0.515381 25.6851 0.515381C22.5652 0.515381 20.3682 2.09709 20.3547 4.35847C20.3288 6.02691 21.9277 6.95359 23.1236 7.5099C24.3459 8.07837 24.7613 8.44941 24.7613 8.95611C24.7489 9.73432 23.7737 10.093 22.8641 10.093C21.6028 10.093 20.9269 9.9081 19.8999 9.47514L19.4838 9.28954L19.0417 11.8971C19.7827 12.2181 21.1479 12.5029 22.5652 12.5154C25.8801 12.5154 28.0383 10.9581 28.0638 8.54828C28.0765 7.22592 27.2322 6.21267 25.412 5.38469C24.307 4.85319 23.6303 4.49479 23.6303 3.95097C23.6432 3.45658 24.2026 2.9502 25.45 2.9502C26.477 2.9254 27.2317 3.16011 27.8033 3.39499L28.0891 3.51834L28.5187 1.00993Z" fill="#333333"/>
<path d="M32.717 8.22604C32.9772 7.5587 33.9784 4.97589 33.9784 4.97589C33.9652 5.00069 34.238 4.29623 34.394 3.86377L34.6148 4.8647C34.6148 4.8647 35.2131 7.64526 35.343 8.22604C34.8492 8.22604 33.341 8.22604 32.717 8.22604ZM36.6168 0.724976H34.1731C33.4195 0.724976 32.8469 0.934885 32.5218 1.68879L27.8291 12.3411H31.144C31.144 12.3411 31.6898 10.9074 31.8071 10.5986C32.1708 10.5986 35.3955 10.5986 35.8634 10.5986C35.9541 11.0064 36.2403 12.3411 36.2403 12.3411H39.1655L36.6168 0.724976Z" fill="#333333"/>
<path d="M11.2673 0.724976L8.1733 8.64619L7.8352 7.03968C7.26319 5.18597 5.46924 3.17195 3.46729 2.17053L6.30126 12.329H9.64211L14.608 0.724976H11.2673Z" fill="#333333"/>
<path d="M5.3005 0.725586H0.217528L0.165527 0.960297C4.13057 1.92427 6.75653 4.2479 7.83542 7.04078L6.73045 1.70204C6.54853 0.960133 5.98947 0.750059 5.3005 0.725586Z" fill="#333333" fill-opacity="0.8"/>
</svg>