<svg xmlns="http://www.w3.org/2000/svg" viewBox="0 0 38 44.76"><title>hulii-iconoAsset 1</title><g id="Layer_2" data-name="Layer 2"><g id="Layer_1-2" data-name="Layer 1"><path d="M26,21v2.86c0,1.26-.05,2.55-.14,3.86A10.4,10.4,0,0,1,25,31.3a6.26,6.26,0,0,1-2.23,2.61,7.62,7.62,0,0,1-4.26,1,7.78,7.78,0,0,1-4.29-1A6,6,0,0,1,12,31.3a10.63,10.63,0,0,1-.85-3.58c-.09-1.31-.14-2.6-.14-3.86V21H0v4.4Q0,35.48,4.69,40.12T19,44.76q9.66,0,14.31-4.64T38,25.4V21Z" style="fill:#35176c"/><rect width="11" height="11" style="fill:#35176c"/><circle cx="32.5" cy="5.5" r="5.5" style="fill:#35176c"/></g></g></svg>