<svg id="bmico-amex" viewBox="0 0 180 118" width="100%" height="100%"><path d="M168.887 0H9.113C4.08 0 0 4.036 0 9.016v97.968C0 111.964 4.08 116 9.113 116h159.774c5.033 0 9.113-4.036 9.113-9.016V9.016C178 4.036 173.92 0 168.887 0z" transform="translate(1 1)" fill="#fff" stroke="url(#bmico-amex-a)" stroke-width="2"></path><path d="M34.519 7.01h110.133v55.73l-5.401 7.933 5.4 7.14v32.425H34.52V57.781l3.389-3.668-3.39-3.471V7.01z" fill="#296CB3"></path><path d="M55.91 78.903V62.74h18.32l2.012 2.38 2.012-2.38h66.504v15.072s-1.695 1.091-3.707 1.091H104.2l-2.224-2.578v2.578h-7.307V74.54s-.953.595-3.177.595h-2.435v3.768H78.042l-2.012-2.479-2.012 2.48H55.91zM34.519 50.444l4.13-9.024h7.095l2.33 5.057V41.42h8.895l1.377 3.669 1.376-3.67H99.54v1.885s2.118-1.884 5.506-1.884h12.92l2.33 4.958V41.32h7.412l2.012 2.875v-2.875h7.519v16.163h-7.519l-2.012-2.876v2.876h-10.907l-1.059-2.578h-2.965l-1.06 2.578h-7.412c-2.965 0-4.871-1.785-4.871-1.785v1.785h-11.12l-2.223-2.578v2.578H44.579l-1.059-2.578h-2.965l-1.059 2.578h-5.083v-7.04h.106z" fill="#fff"></path><path d="M40.131 43.403L34.52 55.5h3.6l1.06-2.38h5.93l1.059 2.38h3.706l-5.613-12.098h-4.13zm2.118 2.876l1.8 4.264h-3.6l1.8-4.264zM50.297 55.6V43.502h5.19l2.965 7.834 2.965-7.834H66.5V55.6h-3.283v-8.925L59.828 55.6H56.97l-3.389-8.925V55.6h-3.283zM68.724 55.6V43.502h10.59v2.678h-7.308v2.082h7.096v2.578h-7.096v2.182h7.307v2.677h-10.59V55.6zM81.114 43.403V55.5h3.282v-4.264h1.377l3.918 4.264h3.918l-4.235-4.462c1.8-.1 3.6-1.587 3.6-3.769 0-2.578-2.118-3.966-4.553-3.966h-7.307v.099zm3.282 2.777h3.707c.847 0 1.482.694 1.482 1.289 0 .793-.847 1.289-1.482 1.289h-3.707V46.18zM97.528 55.6h-3.283V43.502h3.283V55.6zM105.364 55.6h-.741c-3.495 0-5.507-2.578-5.507-6.049 0-3.57 2.118-6.148 6.46-6.148h3.6v2.876h-3.706c-1.8 0-3.071 1.289-3.071 3.272 0 2.38 1.482 3.372 3.494 3.372h.848l-1.377 2.677zM112.354 43.403L106.74 55.5h3.6l1.06-2.38h5.93l1.059 2.38h3.706l-5.612-12.098h-4.13zm2.117 2.876l1.8 4.264h-3.6l1.8-4.264zM122.519 55.6V43.502h4.13l5.295 7.636v-7.636h3.283V55.6h-4.024l-5.401-7.834V55.6h-3.283zM58.134 76.82V64.724h10.59V67.4h-7.307v2.083h7.095v2.578h-7.095v2.182h7.307v2.677h-10.59v-.1zM109.917 76.82V64.724h10.59V67.4H113.2v2.083h7.095v2.578H113.2v2.182h7.307v2.677h-10.59v-.1zM69.147 76.82l5.19-5.949-5.296-6.148h4.13l3.177 3.768 3.177-3.768h3.918l-5.189 6.049 5.19 6.049h-4.13l-3.072-3.768-2.965 3.768h-4.13zM83.655 64.624v12.098h3.283v-3.868h3.389c2.859 0 5.083-1.388 5.083-4.264 0-2.28-1.695-4.065-4.66-4.065h-7.095v.099zm3.283 2.776h3.6c.953 0 1.589.496 1.589 1.389 0 .793-.636 1.388-1.589 1.388h-3.6V67.4zM96.786 64.624v12.098h3.283v-4.264h1.377l3.918 4.264h3.918l-4.236-4.463c1.8-.099 3.6-1.586 3.6-3.768 0-2.578-2.117-3.966-4.553-3.966h-7.307v.099zm3.283 2.776h3.707c.847 0 1.482.694 1.482 1.29 0 .793-.847 1.289-1.482 1.289h-3.707V67.4zM121.99 76.82v-2.677h6.46c.952 0 1.376-.495 1.376-.991s-.424-.992-1.377-.992h-2.965c-2.541 0-3.918-1.487-3.918-3.669 0-1.983 1.27-3.867 5.083-3.867h6.354l-1.377 2.776h-5.4c-1.06 0-1.377.496-1.377.992s.423 1.09 1.165 1.09h3.07c2.86 0 4.025 1.488 4.025 3.471 0 2.083-1.377 3.868-4.236 3.868h-6.883zM133.85 76.82v-2.677h6.46c.953 0 1.377-.495 1.377-.991s-.424-.992-1.377-.992h-2.965c-2.541 0-3.918-1.487-3.918-3.669 0-1.983 1.27-3.867 5.083-3.867h6.354l-1.377 2.776h-5.4c-1.06 0-1.377.496-1.377.992s.423 1.09 1.165 1.09h3.07c2.86 0 4.025 1.488 4.025 3.471 0 2.083-1.377 3.868-4.236 3.868h-6.883z" fill="#296CB3"></path></svg>