<svg id="bmico-discover" viewBox="0 0 180 118" width="100%" height="100%"><path d="M168.887 0H9.113C4.08 0 0 4.036 0 9.016v97.968C0 111.964 4.08 116 9.113 116h159.774c5.033 0 9.113-4.036 9.113-9.016V9.016C178 4.036 173.92 0 168.887 0z" transform="translate(1 1)" fill="#fff" stroke="url(#bmico-discover-a)" stroke-width="2"></path><path d="M22.992 12.327c0 6.849-5.087 12.327-11.447 12.327C5.185 24.654 0 19.07 0 12.327S5.088 0 11.447 0c6.36 0 11.545 5.479 11.545 12.327z" transform="translate(86.115 50.657) scale(.94947)" fill="url(#bmico-discover-b)"></path><path d="M34.373 58.912c0 2.36-.5 4.475-1.502 6.347-1 1.86-2.265 3.29-3.792 4.289a11.15 11.15 0 0 1-3.777 1.565c-1.37.295-2.992.443-4.868.443h-8.296v-25.34h8.533c1.918 0 3.572.176 4.962.528 1.391.34 2.56.828 3.509 1.463 1.622 1.067 2.897 2.508 3.824 4.323.938 1.804 1.407 3.93 1.407 6.381zm-6.274-.052c0-1.667-.285-3.091-.854-4.271-.558-1.191-1.448-2.122-2.67-2.791a6.422 6.422 0 0 0-1.913-.664c-.642-.125-1.617-.187-2.923-.187h-1.533v15.86h1.533c1.443 0 2.502-.067 3.176-.203a6.8 6.8 0 0 0 1.976-.783c1.106-.681 1.917-1.589 2.434-2.723.516-1.146.774-2.558.774-4.238zm16.277 12.696h-5.69V52.445h5.69v19.11zm.158-21.834h-6.005v-4.646h6.005v4.646zm20.639 15.775c0 1.974-.822 3.568-2.466 4.782-1.643 1.203-3.892 1.804-6.747 1.804-1.58 0-3.014-.159-4.299-.476-1.285-.318-2.318-.67-3.097-1.055v-5.038h.521c.285.216.611.454.98.715.38.25.911.522 1.596.817.59.26 1.26.488 2.007.68.748.182 1.549.273 2.402.273 1.117 0 1.944-.13 2.481-.391.538-.273.806-.67.806-1.192 0-.465-.158-.8-.474-1.004-.316-.215-.916-.42-1.801-.612a22.1 22.1 0 0 0-1.723-.324 18.655 18.655 0 0 1-1.96-.442c-1.611-.454-2.807-1.157-3.587-2.11-.78-.965-1.17-2.162-1.17-3.591 0-1.838.807-3.364 2.419-4.578 1.622-1.225 3.835-1.838 6.637-1.838 1.327 0 2.597.148 3.808.443 1.223.283 2.176.59 2.86.919v4.833h-.49a11.032 11.032 0 0 0-2.891-1.515 9.371 9.371 0 0 0-3.271-.596c-.917 0-1.691.137-2.323.409-.622.272-.933.658-.933 1.157 0 .454.142.8.427 1.038.284.238.953.477 2.007.715.58.125 1.201.25 1.865.374.674.114 1.348.261 2.023.443 1.496.42 2.602 1.083 3.318 1.99.717.897 1.075 2.02 1.075 3.37zm13.037 6.57c-1.548 0-2.965-.2-4.25-.596-1.276-.398-2.387-1.01-3.335-1.838-.938-.829-1.665-1.872-2.18-3.132-.517-1.259-.775-2.734-.775-4.424 0-1.781.274-3.319.821-4.612.559-1.293 1.333-2.366 2.323-3.216a9.178 9.178 0 0 1 3.32-1.77 13.57 13.57 0 0 1 3.902-.562c1.212 0 2.329.142 3.35.426 1.023.283 1.976.652 2.861 1.106v5.224h-.806c-.221-.204-.49-.442-.806-.715a6.849 6.849 0 0 0-1.138-.8 6.867 6.867 0 0 0-1.422-.612c-.516-.17-1.117-.255-1.802-.255-1.517 0-2.686.522-3.508 1.565-.811 1.033-1.217 2.44-1.217 4.22 0 1.839.416 3.234 1.249 4.187.843.953 2.033 1.43 3.571 1.43.717 0 1.36-.085 1.928-.256.58-.181 1.06-.391 1.438-.63.359-.226.675-.464.949-.714.273-.25.526-.494.758-.732h.806v5.225a14.4 14.4 0 0 1-2.813 1.072c-.969.272-2.044.408-3.224.408zM127.577 52.462l-6.843 19.111h-6.448l-6.795-19.11h6.021l4.109 13.137 4.061-13.138h5.895zM148.23 63.15H135.21c.084 1.498.61 2.644 1.58 3.438.98.794 2.418 1.191 4.314 1.191a9.073 9.073 0 0 0 3.493-.698c1.127-.465 2.017-.964 2.67-1.497h.632V70.5c-1.285.556-2.496.959-3.634 1.208-1.138.25-2.397.375-3.777.375-3.561 0-6.29-.863-8.186-2.587-1.897-1.725-2.845-4.18-2.845-7.369 0-3.154.896-5.65 2.687-7.487 1.801-1.85 4.267-2.774 7.396-2.774 2.886 0 5.057.788 6.51 2.365 1.454 1.566 2.181 3.823 2.181 6.773v2.144zm-5.657-3.59c-.032-1.282-.327-2.247-.885-2.893-.559-.647-1.428-.97-2.608-.97-1.095 0-1.996.306-2.702.919-.706.612-1.1 1.594-1.185 2.944h7.38zm22.535-1.26h-.506c-.242-.09-.632-.159-1.17-.204a16.447 16.447 0 0 0-1.343-.068c-.81 0-1.527.057-2.149.17-.621.114-1.29.307-2.007.579v12.797h-5.689v-19.11h5.69v2.807c1.253-1.157 2.343-1.923 3.27-2.297.928-.386 1.781-.579 2.56-.579.2 0 .427.006.68.017.253.011.474.029.664.051V58.3zM164.325 49.722c0-.416.09-.803.267-1.16a2.11 2.11 0 0 1 .744-.841 1.855 1.855 0 0 1 2.055 0c.316.204.563.484.741.841.18.357.27.744.27 1.16 0 .407-.086.787-.258 1.142-.173.355-.418.64-.736.857a1.818 1.818 0 0 1-1.043.322 1.84 1.84 0 0 1-1.043-.319 2.166 2.166 0 0 1-.736-.854 2.568 2.568 0 0 1-.261-1.148zm.33 0c0 .355.077.684.23.987a1.8 1.8 0 0 0 .624.709 1.546 1.546 0 0 0 1.715-.003 1.8 1.8 0 0 0 .62-.712c.152-.299.228-.626.228-.98 0-.353-.076-.678-.227-.975-.15-.3-.357-.534-.62-.706a1.546 1.546 0 0 0-1.715-.003c-.266.17-.474.405-.628.706a2.147 2.147 0 0 0-.227.977zm1.288.232V51h-.405v-2.627h.793c.293 0 .52.068.68.205.163.134.245.33.245.587 0 .254-.123.448-.368.582.234.103.351.314.353.631v.19c0 .177.017.304.05.383V51h-.417c-.027-.075-.04-.207-.04-.397 0-.192-.004-.305-.01-.34-.03-.198-.155-.301-.376-.31h-.505zm0-.396h.448a.541.541 0 0 0 .333-.108.33.33 0 0 0 .127-.27c0-.15-.038-.256-.112-.318-.075-.064-.208-.096-.4-.096h-.396v.792z" fill="#000"></path></svg>