<svg id="bmico-mastercard" viewBox="0 0 180 119" width="100%" height="100%"><path fill="#000" fill-opacity="0" d="M1 1.6h178v116H1z"></path><path d="M169.887 1.6H10.113C5.08 1.6 1 5.636 1 10.616v97.968c0 4.98 4.08 9.016 9.113 9.016h159.774c5.033 0 9.113-4.036 9.113-9.016V10.615c0-4.979-4.08-9.015-9.113-9.015z" fill="#fff" stroke="url(#bmico-mastercard-a)" stroke-width="2"></path><path d="M50.793 104.987v-6.01c.101-2.004-1.316-3.707-3.341-3.807h-.507c-1.316-.1-2.632.6-3.442 1.703-.709-1.102-1.924-1.803-3.24-1.703-1.114-.1-2.228.5-2.835 1.402V95.37H35.3v9.617h2.127v-5.31c-.203-1.202.709-2.404 1.924-2.504h.405c1.417 0 2.126.902 2.126 2.504v5.31h2.126v-5.31c-.202-1.202.709-2.404 1.924-2.504h.405c1.417 0 2.126.902 2.126 2.504v5.31h2.329zm31.49-9.517H78.84v-2.905h-2.127v2.905H74.79v1.903h1.923v4.408c0 2.204.912 3.506 3.342 3.506.91 0 1.822-.3 2.632-.701l-.607-1.803c-.608.3-1.215.501-1.823.501-1.012 0-1.417-.601-1.417-1.603v-4.308h3.442V95.47zm18.022-.3c-1.013 0-2.025.5-2.531 1.402V95.37h-2.127v9.617h2.127v-5.41c0-1.602.708-2.504 2.025-2.504.405 0 .911.1 1.316.2l.607-2.003c-.506 0-1.012-.1-1.417-.1zM73.068 96.17c-1.215-.7-2.531-1.001-3.948-1.001-2.43 0-4.05 1.202-4.05 3.105 0 1.603 1.214 2.504 3.34 2.805l1.013.1c1.114.2 1.721.501 1.721 1.002 0 .701-.81 1.202-2.227 1.202-1.114 0-2.329-.301-3.24-1.002l-1.013 1.603c1.215.801 2.734 1.302 4.152 1.202 2.835 0 4.455-1.302 4.455-3.105 0-1.804-1.317-2.605-3.341-2.905l-1.013-.1c-.911-.1-1.62-.301-1.62-.902s.709-1.102 1.823-1.102c1.113 0 2.126.3 3.037.801l.911-1.703zm56.397-1.001c-1.012 0-2.025.5-2.531 1.402V95.37h-2.126v9.617h2.126v-5.41c0-1.602.709-2.504 2.025-2.504.405 0 .911.1 1.316.2l.608-2.003c-.405 0-.911-.1-1.418-.1zm-27.135 5.008c-.101 2.705 2.025 4.909 4.657 5.009h.507c1.215.1 2.531-.301 3.442-1.102l-1.012-1.703c-.709.501-1.62.801-2.531.902-1.722-.101-2.937-1.603-2.836-3.306.102-1.503 1.317-2.705 2.836-2.805.911 0 1.822.3 2.531.902l1.012-1.703c-1.012-.802-2.227-1.202-3.442-1.102-2.734-.2-4.962 1.903-5.164 4.508v.4zm19.744 0V95.37h-2.126v1.202c-.709-.901-1.823-1.402-3.038-1.402-2.835 0-5.062 2.203-5.062 5.008s2.227 5.009 5.062 5.009c1.215 0 2.329-.501 3.038-1.402v1.202h2.126v-4.809zm-7.796 0c.101-1.602 1.518-2.805 3.138-2.704a2.926 2.926 0 0 1 2.734 3.105c-.101 1.503-1.316 2.705-2.936 2.705-1.62 0-2.936-1.202-2.936-2.805v-.301zM88.863 95.17c-2.835 0-5.062 2.304-4.96 5.108 0 2.805 2.328 5.009 5.163 4.909 1.418.1 2.936-.401 4.05-1.302l-1.013-1.503c-.81.601-1.822 1.002-2.834 1.002-1.418.1-2.734-.902-2.937-2.304h7.19v-.802c-.102-3.105-1.925-5.108-4.659-5.108zm0 1.903c1.317 0 2.43 1.002 2.43 2.304h-5.062c.101-1.302 1.215-2.404 2.633-2.304zm52.753 3.105v-8.615h-2.026v5.009c-.708-.901-1.823-1.402-3.038-1.402-2.834 0-5.062 2.203-5.062 5.008s2.228 5.009 5.062 5.009c1.215 0 2.33-.501 3.038-1.402v1.202h2.026v-4.809zm3.544 3.406c.1 0 .304 0 .404.1.101 0 .203.101.304.201.101.1.202.2.202.3a.849.849 0 0 1 0 .701c-.101.101-.101.201-.202.301-.101.1-.203.2-.304.2-.1.1-.202.1-.404.1-.405 0-.709-.2-.912-.601a.841.841 0 0 1 0-.701c.101-.1.102-.2.203-.3.1-.1.203-.201.304-.201.1-.1.304-.1.405-.1zm0 1.703c.1 0 .202 0 .304-.1.1 0 .201-.1.201-.2.304-.301.304-.702 0-1.002l-.201-.2c-.102 0-.204-.101-.304-.101-.101 0-.204 0-.305.101-.1 0-.202.1-.202.2-.304.3-.304.701 0 1.002.101.1.202.1.202.2.101.1.204.1.305.1zm0-1.202c.1 0 .202 0 .304.1.1.1.1.1.1.201 0 .1 0 .1-.1.2-.102.1-.103.1-.204.1l.304.301h-.203l-.302-.301h-.103v.301h-.201v-.902h.405zm-.204.2v.201h.304v-.201h-.304zm-11.137-4.107c.101-1.602 1.518-2.805 3.138-2.704a2.926 2.926 0 0 1 2.734 3.105c-.101 1.503-1.315 2.705-2.935 2.705-1.621 0-2.937-1.202-2.937-2.805v-.301zm-71.078 0V95.37h-2.127v1.202c-.708-.901-1.822-1.402-3.037-1.402-2.835 0-5.063 2.203-5.063 5.008s2.228 5.009 5.063 5.009c1.215 0 2.329-.501 3.037-1.402v1.202h2.127v-4.809zm-7.898 0c.101-1.602 1.519-2.805 3.139-2.704a2.926 2.926 0 0 1 2.734 3.105c-.102 1.503-1.317 2.705-2.937 2.705-1.62 0-2.936-1.202-2.936-2.805v-.301z" fill="#231F20"></path><path d="M104.254 22.444H72.359v56.698h31.895V22.444z" fill="#FF5F00"></path><path d="M74.384 50.793c0-11.019 5.164-21.537 13.973-28.349-15.795-12.321-38.78-9.616-51.233 6.11C24.67 44.283 27.505 66.822 43.3 79.143a36.662 36.662 0 0 0 45.057 0c-8.809-6.812-13.973-17.23-13.973-28.349z" fill="#EB001B"></path><path d="M147.285 50.793c0 19.934-16.301 36.062-36.45 36.062-8.201 0-16.099-2.704-22.478-7.713 15.795-12.321 18.529-34.96 6.177-50.687a35.469 35.469 0 0 0-6.177-6.111c15.795-12.321 38.78-9.617 51.233 6.11 4.962 6.412 7.695 14.225 7.695 22.34zM143.844 73.132V71.93h.506v-.2h-1.215v.2h.506v1.202h.203zm2.329 0v-1.403h-.405l-.405 1.002-.405-1.002h-.304v1.403h.304V72.03l.405.901h.303l.405-.901v1.102h.102z" fill="#F79E1B"></path></svg>