<svg id="bmico-visa" viewBox="0 0 180 118" width="100%" height="100%"><path d="M168.887 0H9.113C4.08 0 0 4.036 0 9.016v97.968C0 111.964 4.08 116 9.113 116h159.774c5.033 0 9.113-4.036 9.113-9.016V9.016C178 4.036 173.92 0 168.887 0z" transform="translate(1 1)" fill="#fff" stroke="url(#bmico-visa-a)" stroke-width="2"></path><path d="M76.612 82.427h-12.56l8.075-47.039h12.11l-7.625 47.039zM121.017 36.276c-2.242-.888-6.28-2.219-11.213-2.219-12.11 0-20.633 6.213-20.633 15.532 0 6.656 6.28 10.65 10.765 12.869 4.934 2.219 6.28 3.994 6.28 5.769 0 3.106-4.037 4.437-7.177 4.437-4.934 0-7.625-.887-11.662-2.662l-1.794-.888-1.794 10.65c2.69 1.332 8.073 2.663 13.904 2.663 13.008 0 21.082-6.213 21.53-15.975 0-5.326-3.14-9.32-10.316-12.87-4.486-2.218-6.728-3.55-6.728-5.768 0-2.22 2.242-3.994 7.176-3.994 4.037 0 6.728.887 8.971 1.775l.897.887 1.794-10.206zM137.613 65.564c.897-2.663 4.934-13.313 4.934-13.313s.897-2.662 1.794-4.437l.897 3.993s2.243 11.094 2.692 13.757h-10.317zm14.802-30.176h-9.42c-3.14 0-4.933.888-6.279 3.994l-18.39 43.045h13.008s2.242-5.769 2.69-7.1h15.7c.448 1.775 1.345 7.1 1.345 7.1h11.214l-9.868-47.039zM54.185 35.388L42.075 67.34l-1.346-6.656c-2.243-7.544-9.42-15.532-17.045-19.526l11.214 41.27h13.007l19.288-47.039H54.185z" fill="#00579F"></path><path d="M30.86 35.388H11.126v.888c15.25 3.994 25.567 13.313 29.604 24.407l-4.486-21.745c-.448-2.662-2.69-3.55-5.382-3.55z" fill="#FAA61A"></path><path d="M164.4 112.4H12.8c-5.2 0-9.3-4.2-9.3-9.3V12.8c0-5.2 4.2-9.3 9.3-9.3h151.6c5.2 0 9.3 4.2 9.3 9.3v90.3c0 5.1-4.2 9.3-9.3 9.3z" fill="#fff" stroke="url(#iauhjsbdadfpppqehhhh)" stroke-width="2" stroke-miterlimit="10"></path><path fill="#00579f" d="M76.098 81.454H63.694l7.974-46.958h11.96z"></path><path inkscape:connector-curvature="0" xmlns:inkscape="http://www.inkscape.org/namespaces/inkscape" d="M119.955 35.382c-2.215-.886-6.202-2.215-11.075-2.215-11.961 0-20.378 6.202-20.378 15.505 0 6.645 6.202 10.632 10.632 12.847 4.873 2.215 6.202 3.987 6.202 5.759 0 3.1-3.987 4.43-7.088 4.43-4.873 0-7.531-.886-11.518-2.658l-1.772-.886-1.772 10.632c2.658 1.329 7.974 2.658 13.733 2.658 12.847 0 20.82-6.202 21.264-15.948 0-5.316-3.101-9.303-10.19-12.847-4.43-2.215-6.644-3.544-6.644-5.76 0-2.214 2.215-3.986 7.088-3.986 3.987 0 6.645.886 8.86 1.772l.886.886 1.772-10.189zM136.345 64.62c.886-2.658 4.873-13.29 4.873-13.29s.886-2.658 1.772-4.43l.886 3.987s2.215 11.075 2.658 13.733h-10.189zm14.62-30.124h-9.304c-3.1 0-4.873.886-6.202 3.987l-18.162 42.97h12.846s2.215-5.758 2.658-7.087h15.505c.443 1.772 1.33 7.088 1.33 7.088h11.074l-9.746-46.958zM53.948 34.496l-11.96 31.896-1.33-6.645c-2.215-7.531-9.303-15.505-16.834-19.492L34.9 81.454h12.847l19.049-46.958H53.948z" fill="#00579f"></path><path inkscape:connector-curvature="0" xmlns:inkscape="http://www.inkscape.org/namespaces/inkscape" d="M30.912 34.496H11.42v.886c15.062 3.987 25.251 13.29 29.238 24.365l-4.43-21.707c-.443-2.658-2.658-3.544-5.316-3.544z" fill="#faa61a"></path></svg>